<?xml version="1.0" encoding="utf-8"?>
<svg width="23.99996566772461" height="23.999963760375977" viewBox="7.20823e-7 -1.91532e-7 24 24" xmlns="http://www.w3.org/2000/svg">
  <g transform="matrix(0.06463801115751266, 0, 0, 0.0653270035982132, 0, 0)">
    <path d="M 371.298 310.4 C 371.298 276.394 352.457 252.5 322.818 252.5 C 308.572 252.5 296.625 259.393 290.65 267.205 L 290.65 208.385 L 264.457 208.385 L 264.457 364.626 L 290.65 364.626 L 290.65 353.137 C 297.544 361.638 308.113 367.382 322.818 367.382 C 351.999 367.382 371.298 343.256 371.298 310.4 Z M 208.398 353.136 L 208.398 364.625 L 234.59 364.625 L 234.59 208.384 L 208.398 208.384 L 208.398 267.204 C 202.423 259.392 190.475 252.499 176.231 252.499 C 146.591 252.499 127.75 276.394 127.75 310.399 C 127.75 343.256 147.05 367.382 176.231 367.382 C 190.936 367.382 201.505 361.638 208.398 353.136 Z M 87.771 326.024 C 84.324 331.539 75.593 344.866 55.833 344.866 C 36.533 344.866 27.342 331.999 25.504 317.063 L 105.233 317.063 C 105.233 315.225 105.463 312.239 105.463 310.4 C 105.463 276.854 88.69 252.728 53.766 252.728 C 23.207 252.728 0 275.247 0 309.021 C 0 344.406 22.058 367.382 54.455 367.382 C 86.392 367.382 101.097 347.392 105.923 339.81 Z M 317.304 275.016 C 334.076 275.016 345.106 287.883 345.106 309.94 C 345.106 331.539 334.077 344.635 317.304 344.635 C 300.761 344.635 289.502 331.08 289.502 309.94 C 289.502 288.802 300.761 275.016 317.304 275.016 Z M 181.745 344.635 C 164.972 344.635 153.943 331.538 153.943 309.94 C 153.943 287.883 164.972 275.016 181.745 275.016 C 198.287 275.016 209.547 288.802 209.547 309.94 C 209.547 331.08 198.287 344.635 181.745 344.635 Z M 79.499 297.533 L 26.194 297.533 C 26.883 284.436 38.831 273.637 53.766 273.637 C 68.471 273.637 78.81 283.287 79.499 297.533 Z M 24.539 94.861 L 24.539 99.293 L 29.792 99.293 L 29.792 56.256 L 24.539 56.256 L 24.539 73.597 C 23.463 71.508 20.299 68.47 14.856 68.47 C 7.325 68.47 1.565 74.166 1.565 84.292 C 1.565 94.166 7.008 100.051 14.666 100.051 C 20.362 100.051 23.463 96.887 24.539 94.861 Z M 31.817 140.548 C 31.817 130.422 26.057 124.726 18.526 124.726 C 13.083 124.726 9.919 127.764 8.843 129.853 L 8.843 112.512 L 3.59 112.512 L 3.59 155.548 L 8.843 155.548 L 8.843 151.117 C 9.919 153.143 13.021 156.307 18.716 156.307 C 26.374 156.307 31.817 150.421 31.817 140.548 Z M 60.993 90.369 C 59.917 92.14 57.259 95.495 52.006 95.495 C 45.36 95.495 42.576 90.369 42.449 85.432 L 64.98 85.432 L 64.98 84.293 C 64.98 75.306 60.486 68.471 51.436 68.471 C 43.145 68.471 37.133 74.863 37.133 84.103 C 37.133 94.166 42.892 100.052 51.499 100.052 C 59.727 100.052 63.651 94.862 64.79 93.09 Z M 121.812 146.625 C 120.736 148.396 118.078 151.751 112.825 151.751 C 106.18 151.751 103.395 146.625 103.269 141.688 L 125.799 141.688 L 125.799 140.549 C 125.799 131.562 121.306 124.727 112.255 124.727 C 103.965 124.727 97.952 131.12 97.952 140.359 C 97.952 150.422 103.712 156.308 112.319 156.308 C 120.546 156.308 124.47 151.119 125.609 149.346 Z M 64.283 152.32 L 63.587 152.32 C 61.752 152.32 60.992 151.687 60.992 149.598 L 60.992 134.284 C 60.992 126.752 56.562 124.791 49.727 124.791 C 43.018 124.791 37.259 128.082 37.386 134.853 L 42.386 135.423 C 42.386 131.816 44.094 129.094 49.537 129.094 C 54.853 129.094 55.929 131.183 55.929 134.347 L 55.929 135.17 C 55.929 136.436 55.296 136.689 53.398 137.005 L 48.335 137.891 C 43.968 138.651 40.487 139.663 38.462 141.942 C 37.322 143.208 36.626 144.917 36.626 147.321 C 36.626 153.397 40.93 156.372 47.069 156.372 C 52.828 156.372 55.233 153.776 56.182 152.194 L 56.246 152.194 C 56.435 154.664 57.638 156.246 61.309 156.246 C 62.638 156.246 63.65 156.119 64.283 155.993 Z M 91.813 129.473 C 89.851 127.194 85.864 124.726 80.295 124.726 C 74.726 124.726 68.777 127.448 68.777 133.903 C 68.777 139.219 73.08 141.308 78.27 142.32 L 82.383 143.143 C 85.421 143.713 87.636 144.346 87.636 147.194 C 87.636 150.231 84.852 151.94 80.738 151.94 C 76.624 151.94 73.207 149.789 70.928 146.814 L 67.511 150.358 C 69.916 153.46 74.662 156.307 80.422 156.307 C 87.636 156.307 93.016 152.889 93.016 146.751 C 93.016 141.498 89.155 139.472 84.345 138.46 L 80.865 137.764 C 76.371 136.814 74.093 136.055 74.093 133.207 C 74.093 130.549 76.688 129.093 80.042 129.093 C 83.333 129.093 86.244 130.485 88.396 132.89 Z M 17.577 129.029 C 22.893 129.029 26.437 133.08 26.437 140.422 C 26.437 147.637 23.146 151.877 17.703 151.877 C 12.45 151.877 8.337 148.081 8.337 140.422 C 8.337 132.827 12.387 129.029 17.577 129.029 Z M 15.679 95.622 C 10.236 95.622 6.945 91.382 6.945 84.167 C 6.945 76.825 10.489 72.774 15.805 72.774 C 20.995 72.774 25.045 76.571 25.045 84.167 C 25.045 91.825 20.932 95.622 15.679 95.622 Z M 55.929 145.864 C 55.929 150.549 52.258 152.258 48.335 152.258 C 44.727 152.258 42.069 150.422 42.069 147.005 C 42.069 143.334 45.423 142.573 49.221 141.815 C 54.094 140.802 55.423 140.549 55.929 140.359 Z M 59.537 81.254 L 42.639 81.254 C 43.209 76.002 46.816 72.711 51.436 72.711 C 56.183 72.711 59.094 75.938 59.537 81.254 Z M 120.356 137.51 L 103.458 137.51 C 104.028 132.258 107.635 128.967 112.255 128.967 C 117.002 128.967 119.913 132.194 120.356 137.51 Z M 103.077 43.036 L 108.33 43.036 L 108.33 25.442 C 108.33 20.569 111.494 16.708 115.545 16.708 C 117.95 16.708 119.912 17.531 120.924 20.252 C 121.367 21.518 121.62 23.29 121.62 25.822 L 121.62 43.036 L 126.873 43.036 L 126.873 23.86 C 126.873 21.581 126.62 19.809 126.177 18.354 C 124.848 14.05 121.557 12.151 117.443 12.151 C 112.444 12.151 108.899 14.936 107.444 17.847 C 106.178 14.05 103.204 12.151 98.837 12.151 C 94.786 12.151 91.116 14.43 89.786 17.341 L 89.786 12.911 L 84.534 12.911 L 84.534 43.036 L 89.786 43.036 L 89.786 25.442 C 89.786 20.569 92.951 16.708 97.001 16.708 C 99.406 16.708 101.368 17.531 102.381 20.252 C 102.824 21.518 103.077 23.29 103.077 25.822 Z M 157.758 34.112 C 156.682 35.884 154.024 39.239 148.771 39.239 C 142.125 39.239 139.341 34.112 139.214 29.176 L 161.745 29.176 L 161.745 28.037 C 161.745 19.05 157.251 12.215 148.201 12.215 C 139.91 12.215 133.898 18.607 133.898 27.847 C 133.898 37.91 139.657 43.795 148.264 43.795 C 156.492 43.795 160.416 38.606 161.555 36.834 Z M 73.206 34.112 C 72.13 35.884 69.472 39.239 64.219 39.239 C 57.574 39.239 54.789 34.112 54.662 29.176 L 77.193 29.176 L 77.193 28.037 C 77.193 19.05 72.7 12.215 63.649 12.215 C 55.359 12.215 49.346 18.607 49.346 27.847 C 49.346 37.91 55.105 43.795 63.713 43.795 C 71.94 43.795 75.864 38.606 77.003 36.834 Z M 25.425 34.112 C 24.349 35.884 21.691 39.239 16.438 39.239 C 9.793 39.239 7.008 34.112 6.882 29.176 L 29.412 29.176 L 29.412 28.037 C 29.412 19.05 24.919 12.215 15.869 12.215 C 7.578 12.215 1.565 18.607 1.565 27.847 C 1.565 37.91 7.325 43.795 15.932 43.795 C 24.159 43.795 28.083 38.606 29.222 36.834 Z M 194.4 24.113 C 194.4 20.569 193.767 17.974 192.502 16.012 C 190.856 13.48 187.945 12.151 184.021 12.151 C 179.022 12.151 175.92 14.556 174.338 17.341 L 174.338 12.911 L 169.085 12.911 L 169.085 43.036 L 174.338 43.036 L 174.338 25.568 C 174.338 20.822 177.249 16.771 182.313 16.771 C 186.743 16.771 189.148 18.923 189.148 25.442 L 189.148 43.036 L 194.4 43.036 Z M 204.273 16.898 L 204.273 37.72 C 204.273 38.985 204.4 39.935 204.652 40.631 C 205.601 43.162 208.07 43.795 210.919 43.795 C 212.881 43.795 214.652 43.542 216.172 43.162 L 216.172 39.049 C 215.158 39.239 213.957 39.428 212.692 39.428 C 211.046 39.428 210.35 39.112 209.969 38.416 C 209.59 37.783 209.526 36.897 209.526 35.568 L 209.526 16.898 L 216.172 16.898 L 216.172 12.911 L 209.526 12.911 L 209.526 0.886 L 204.274 2.025 L 204.274 12.911 L 198.452 12.911 L 198.452 16.898 Z M 42.006 0 L 36.753 0 L 36.753 43.036 L 42.006 43.036 Z M 71.75 24.999 L 54.852 24.999 C 55.422 19.746 59.029 16.455 63.649 16.455 C 68.396 16.455 71.307 19.683 71.75 24.999 Z M 23.969 24.999 L 7.071 24.999 C 7.641 19.746 11.249 16.455 15.869 16.455 C 20.615 16.455 23.526 19.683 23.969 24.999 Z M 156.302 24.999 L 139.404 24.999 C 139.974 19.746 143.581 16.455 148.201 16.455 C 152.948 16.455 155.859 19.683 156.302 24.999 Z M 17.071 0 L 12.704 8.101 L 17.324 8.101 L 23.78 0 Z M 64.852 0 L 60.485 8.101 L 65.105 8.101 L 71.56 0 Z"/>
  </g>
</svg>